<svg width="73" height="30" viewBox="0 0 73 30" fill="none" xmlns="http://www.w3.org/2000/svg">
<mask id="path-1-inside-1_104_53" fill="white">
<path d="M26.4356 9.93712C26.6706 10.1445 26.8524 10.3822 26.9756 10.6939C26.9906 10.73 26.9906 10.73 27.0058 10.7668C27.1401 11.1476 27.1071 11.6235 26.9756 11.9989C26.8762 12.2689 26.75 12.4934 26.5913 12.7209C26.5733 12.7469 26.5553 12.7729 26.5368 12.7997C26.5162 12.8294 26.5162 12.8294 26.4952 12.8597C26.5987 12.9654 26.7053 13.0648 26.815 13.1617C27.1227 13.4337 27.4217 13.7167 27.708 14.0185C27.741 14.053 27.7742 14.0872 27.808 14.1206C27.9481 14.2592 28.0791 14.4077 28.2094 14.5584C28.247 14.6017 28.2847 14.6449 28.3225 14.688C28.4769 14.8655 28.6175 15.0503 28.7532 15.2476C28.7748 15.2772 28.7965 15.3066 28.8184 15.3357C29.5088 16.2614 29.8098 17.3763 29.8176 18.5831C29.8179 18.603 29.8181 18.6228 29.8183 18.6433C29.8222 19.0333 29.7719 19.3997 29.6735 19.7736C29.6674 19.7969 29.6613 19.8201 29.655 19.844C29.5099 20.3722 29.2436 20.8393 28.9213 21.2453C28.9093 21.2604 28.8973 21.2756 28.8849 21.2912C28.5215 21.7429 28.0845 22.0745 27.5858 22.2924C27.5046 22.3266 27.5046 22.3266 27.4303 22.3683C26.848 22.6588 26.1397 22.6955 25.5164 22.6978C25.4983 22.6979 25.4802 22.698 25.4616 22.6982C25.1182 22.6992 24.79 22.657 24.4564 22.5573C24.4317 22.5499 24.4069 22.5426 24.3814 22.5351C23.7574 22.3461 23.0608 22.038 22.5785 21.5261C22.5322 21.4874 22.5322 21.4874 22.4753 21.5094C22.3974 21.56 22.3287 21.6209 22.2585 21.6843C21.7426 22.1345 21.1633 22.433 20.538 22.6059C20.5211 22.6108 20.5042 22.6158 20.4868 22.6209C19.8377 22.8107 19.0322 22.7274 18.4497 22.3334C18.3082 22.2261 18.1835 22.1053 18.0638 21.9672C18.0471 21.9482 18.0303 21.9291 18.0131 21.9095C17.7667 21.6109 17.5423 21.1302 17.4873 20.7177C17.4699 20.7455 17.4699 20.7455 17.452 20.7738C17.4179 20.8281 17.3837 20.8823 17.3494 20.9365C17.3162 20.9895 17.2835 21.0428 17.2514 21.0968C16.9468 21.6036 16.5634 21.9853 16.0941 22.2727C16.0718 22.2874 16.0496 22.3022 16.0266 22.3174C15.1315 22.8854 13.8693 22.7851 12.9233 22.467C12.6444 22.3708 12.3865 22.238 12.1306 22.0783C12.1052 22.0626 12.0797 22.0469 12.0535 22.0307C11.6372 21.7622 11.2642 21.379 10.9776 20.9398C10.9673 20.9245 10.957 20.9091 10.9464 20.8932C10.3048 19.9349 9.97369 18.7777 9.87265 17.5801C9.86925 17.5412 9.86925 17.5412 9.86579 17.5016C9.81128 16.7992 9.80954 16.0526 9.92069 15.3587C9.92785 15.3117 9.92785 15.3117 9.93515 15.2637C10.1635 13.7856 10.7913 12.3856 11.8748 11.5115C12.3435 11.1416 12.8505 10.8949 13.4037 10.7494C13.4204 10.7447 13.437 10.74 13.4541 10.7351C14.1626 10.5401 14.9346 10.5393 15.6377 10.7494C15.6681 10.758 15.6985 10.7667 15.7298 10.7756C16.1969 10.9242 16.5883 11.2264 16.9348 11.6102C16.9513 11.6278 16.9677 11.6453 16.9847 11.6634C17.1265 11.8196 17.2214 11.9779 17.3432 12.1655C17.3511 11.7715 17.3591 11.3775 17.3672 10.9715C18.3422 10.9715 19.3172 10.9715 20.3218 10.9715C20.3223 11.3813 20.3223 11.3813 20.3229 11.7993C20.324 12.674 20.3256 13.5486 20.3273 14.4232C20.3276 14.5592 20.3278 14.6951 20.3281 14.831C20.3282 14.8716 20.3282 14.8716 20.3283 14.913C20.3291 15.3508 20.3297 15.7886 20.3302 16.2263C20.3307 16.6758 20.3315 17.1252 20.3326 17.5746C20.3332 17.8518 20.3336 18.1289 20.3338 18.4061C20.3339 18.5963 20.3343 18.7866 20.3349 18.9768C20.3353 19.0864 20.3355 19.1961 20.3354 19.3057C20.3353 19.4063 20.3356 19.5069 20.3361 19.6075C20.3362 19.6607 20.3361 19.7139 20.3359 19.7671C20.3387 20.1612 20.4076 20.5471 20.6456 20.8437C20.7695 20.9814 20.9042 21.0301 21.0665 21.0787C21.0812 21.0839 21.096 21.0891 21.1112 21.0944C21.528 21.1922 21.9205 20.9933 22.2621 20.7339C22.3703 20.6489 22.4754 20.5589 22.5798 20.4678C22.6557 20.5073 22.7213 20.559 22.7892 20.6143C23.2812 21.0114 23.8528 21.2576 24.4564 21.254C24.4826 21.2539 24.5087 21.2538 24.5357 21.2537C24.7552 21.2503 24.9607 21.2197 25.1741 21.162C25.1969 21.1566 25.2198 21.1512 25.2433 21.1457C25.7136 21.0208 26.1641 20.6836 26.4277 20.2162C26.5696 19.9365 26.675 19.6243 26.7114 19.3016C26.714 19.2807 26.7167 19.2599 26.7194 19.2384C26.7943 18.5073 26.7214 17.7288 26.5433 17.0247C26.5368 16.9991 26.5303 16.9736 26.5237 16.9472C26.2934 16.0578 25.9328 15.1253 25.4383 14.3869C25.4224 14.3777 25.4066 14.3685 25.3903 14.3591C25.3836 14.3755 25.377 14.3919 25.3702 14.4087C25.3435 14.4674 25.315 14.5136 25.2785 14.5645C25.2659 14.5822 25.2534 14.5999 25.2404 14.6181C25.2269 14.6369 25.2135 14.6556 25.1996 14.6749C25.1711 14.7151 25.1426 14.7552 25.1141 14.7953C25.0999 14.8154 25.0856 14.8355 25.071 14.8562C25.0123 14.9395 24.955 15.024 24.8978 15.1088C24.7902 15.2682 24.6802 15.4253 24.5696 15.5819C24.4857 15.7009 24.403 15.8208 24.3213 15.9418C24.2137 16.1012 24.1037 16.2583 23.9931 16.4149C23.9092 16.5339 23.8265 16.6538 23.7448 16.7748C23.6501 16.915 23.5538 17.0535 23.4566 17.1913C23.3142 17.393 23.1747 17.597 23.0362 17.8022C22.8469 18.0826 22.6544 18.3597 22.4597 18.6352C22.3323 18.5286 22.2137 18.4163 22.0994 18.2916C22.0853 18.2764 22.0713 18.2613 22.0569 18.2457C22.0229 18.209 21.9891 18.1722 21.9552 18.1354C22.0329 17.9453 22.1257 17.7671 22.2207 17.5881C22.2485 17.5357 22.2762 17.4832 22.3039 17.4307C22.3401 17.3621 22.3763 17.2936 22.4125 17.2251C22.6922 16.6958 22.9606 16.1585 23.2217 15.6166C23.2581 15.5413 23.2947 15.466 23.3312 15.3907C23.5578 14.9228 23.7778 14.451 23.9933 13.9761C24.0224 13.9118 24.0516 13.8476 24.0809 13.7833C24.1315 13.6719 24.1819 13.5604 24.2321 13.4487C24.2514 13.4058 24.2707 13.3629 24.2902 13.3201C24.3173 13.2604 24.3441 13.2005 24.3709 13.1406C24.3789 13.123 24.3869 13.1055 24.3952 13.0874C24.4409 12.984 24.4703 12.8926 24.4775 12.7764C24.4437 12.6847 24.4437 12.6847 24.3919 12.5942C24.3739 12.5599 24.356 12.5256 24.3382 12.4912C24.3292 12.474 24.3203 12.4568 24.311 12.439C24.085 11.9884 23.9783 11.4701 24.0615 10.9528C24.1813 10.4728 24.446 10.078 24.8215 9.82974C25.3309 9.51812 25.9596 9.55578 26.4356 9.93712Z"/>
</mask>
<path d="M26.4356 9.93712C26.6706 10.1445 26.8524 10.3822 26.9756 10.6939C26.9906 10.73 26.9906 10.73 27.0058 10.7668C27.1401 11.1476 27.1071 11.6235 26.9756 11.9989C26.8762 12.2689 26.75 12.4934 26.5913 12.7209C26.5733 12.7469 26.5553 12.7729 26.5368 12.7997C26.5162 12.8294 26.5162 12.8294 26.4952 12.8597C26.5987 12.9654 26.7053 13.0648 26.815 13.1617C27.1227 13.4337 27.4217 13.7167 27.708 14.0185C27.741 14.053 27.7742 14.0872 27.808 14.1206C27.9481 14.2592 28.0791 14.4077 28.2094 14.5584C28.247 14.6017 28.2847 14.6449 28.3225 14.688C28.4769 14.8655 28.6175 15.0503 28.7532 15.2476C28.7748 15.2772 28.7965 15.3066 28.8184 15.3357C29.5088 16.2614 29.8098 17.3763 29.8176 18.5831C29.8179 18.603 29.8181 18.6228 29.8183 18.6433C29.8222 19.0333 29.7719 19.3997 29.6735 19.7736C29.6674 19.7969 29.6613 19.8201 29.655 19.844C29.5099 20.3722 29.2436 20.8393 28.9213 21.2453C28.9093 21.2604 28.8973 21.2756 28.8849 21.2912C28.5215 21.7429 28.0845 22.0745 27.5858 22.2924C27.5046 22.3266 27.5046 22.3266 27.4303 22.3683C26.848 22.6588 26.1397 22.6955 25.5164 22.6978C25.4983 22.6979 25.4802 22.698 25.4616 22.6982C25.1182 22.6992 24.79 22.657 24.4564 22.5573C24.4317 22.5499 24.4069 22.5426 24.3814 22.5351C23.7574 22.3461 23.0608 22.038 22.5785 21.5261C22.5322 21.4874 22.5322 21.4874 22.4753 21.5094C22.3974 21.56 22.3287 21.6209 22.2585 21.6843C21.7426 22.1345 21.1633 22.433 20.538 22.6059C20.5211 22.6108 20.5042 22.6158 20.4868 22.6209C19.8377 22.8107 19.0322 22.7274 18.4497 22.3334C18.3082 22.2261 18.1835 22.1053 18.0638 21.9672C18.0471 21.9482 18.0303 21.9291 18.0131 21.9095C17.7667 21.6109 17.5423 21.1302 17.4873 20.7177C17.4699 20.7455 17.4699 20.7455 17.452 20.7738C17.4179 20.8281 17.3837 20.8823 17.3494 20.9365C17.3162 20.9895 17.2835 21.0428 17.2514 21.0968C16.9468 21.6036 16.5634 21.9853 16.0941 22.2727C16.0718 22.2874 16.0496 22.3022 16.0266 22.3174C15.1315 22.8854 13.8693 22.7851 12.9233 22.467C12.6444 22.3708 12.3865 22.238 12.1306 22.0783C12.1052 22.0626 12.0797 22.0469 12.0535 22.0307C11.6372 21.7622 11.2642 21.379 10.9776 20.9398C10.9673 20.9245 10.957 20.9091 10.9464 20.8932C10.3048 19.9349 9.97369 18.7777 9.87265 17.5801C9.86925 17.5412 9.86925 17.5412 9.86579 17.5016C9.81128 16.7992 9.80954 16.0526 9.92069 15.3587C9.92785 15.3117 9.92785 15.3117 9.93515 15.2637C10.1635 13.7856 10.7913 12.3856 11.8748 11.5115C12.3435 11.1416 12.8505 10.8949 13.4037 10.7494C13.4204 10.7447 13.437 10.74 13.4541 10.7351C14.1626 10.5401 14.9346 10.5393 15.6377 10.7494C15.6681 10.758 15.6985 10.7667 15.7298 10.7756C16.1969 10.9242 16.5883 11.2264 16.9348 11.6102C16.9513 11.6278 16.9677 11.6453 16.9847 11.6634C17.1265 11.8196 17.2214 11.9779 17.3432 12.1655C17.3511 11.7715 17.3591 11.3775 17.3672 10.9715C18.3422 10.9715 19.3172 10.9715 20.3218 10.9715C20.3223 11.3813 20.3223 11.3813 20.3229 11.7993C20.324 12.674 20.3256 13.5486 20.3273 14.4232C20.3276 14.5592 20.3278 14.6951 20.3281 14.831C20.3282 14.8716 20.3282 14.8716 20.3283 14.913C20.3291 15.3508 20.3297 15.7886 20.3302 16.2263C20.3307 16.6758 20.3315 17.1252 20.3326 17.5746C20.3332 17.8518 20.3336 18.1289 20.3338 18.4061C20.3339 18.5963 20.3343 18.7866 20.3349 18.9768C20.3353 19.0864 20.3355 19.1961 20.3354 19.3057C20.3353 19.4063 20.3356 19.5069 20.3361 19.6075C20.3362 19.6607 20.3361 19.7139 20.3359 19.7671C20.3387 20.1612 20.4076 20.5471 20.6456 20.8437C20.7695 20.9814 20.9042 21.0301 21.0665 21.0787C21.0812 21.0839 21.096 21.0891 21.1112 21.0944C21.528 21.1922 21.9205 20.9933 22.2621 20.7339C22.3703 20.6489 22.4754 20.5589 22.5798 20.4678C22.6557 20.5073 22.7213 20.559 22.7892 20.6143C23.2812 21.0114 23.8528 21.2576 24.4564 21.254C24.4826 21.2539 24.5087 21.2538 24.5357 21.2537C24.7552 21.2503 24.9607 21.2197 25.1741 21.162C25.1969 21.1566 25.2198 21.1512 25.2433 21.1457C25.7136 21.0208 26.1641 20.6836 26.4277 20.2162C26.5696 19.9365 26.675 19.6243 26.7114 19.3016C26.714 19.2807 26.7167 19.2599 26.7194 19.2384C26.7943 18.5073 26.7214 17.7288 26.5433 17.0247C26.5368 16.9991 26.5303 16.9736 26.5237 16.9472C26.2934 16.0578 25.9328 15.1253 25.4383 14.3869C25.4224 14.3777 25.4066 14.3685 25.3903 14.3591C25.3836 14.3755 25.377 14.3919 25.3702 14.4087C25.3435 14.4674 25.315 14.5136 25.2785 14.5645C25.2659 14.5822 25.2534 14.5999 25.2404 14.6181C25.2269 14.6369 25.2135 14.6556 25.1996 14.6749C25.1711 14.7151 25.1426 14.7552 25.1141 14.7953C25.0999 14.8154 25.0856 14.8355 25.071 14.8562C25.0123 14.9395 24.955 15.024 24.8978 15.1088C24.7902 15.2682 24.6802 15.4253 24.5696 15.5819C24.4857 15.7009 24.403 15.8208 24.3213 15.9418C24.2137 16.1012 24.1037 16.2583 23.9931 16.4149C23.9092 16.5339 23.8265 16.6538 23.7448 16.7748C23.6501 16.915 23.5538 17.0535 23.4566 17.1913C23.3142 17.393 23.1747 17.597 23.0362 17.8022C22.8469 18.0826 22.6544 18.3597 22.4597 18.6352C22.3323 18.5286 22.2137 18.4163 22.0994 18.2916C22.0853 18.2764 22.0713 18.2613 22.0569 18.2457C22.0229 18.209 21.9891 18.1722 21.9552 18.1354C22.0329 17.9453 22.1257 17.7671 22.2207 17.5881C22.2485 17.5357 22.2762 17.4832 22.3039 17.4307C22.3401 17.3621 22.3763 17.2936 22.4125 17.2251C22.6922 16.6958 22.9606 16.1585 23.2217 15.6166C23.2581 15.5413 23.2947 15.466 23.3312 15.3907C23.5578 14.9228 23.7778 14.451 23.9933 13.9761C24.0224 13.9118 24.0516 13.8476 24.0809 13.7833C24.1315 13.6719 24.1819 13.5604 24.2321 13.4487C24.2514 13.4058 24.2707 13.3629 24.2902 13.3201C24.3173 13.2604 24.3441 13.2005 24.3709 13.1406C24.3789 13.123 24.3869 13.1055 24.3952 13.0874C24.4409 12.984 24.4703 12.8926 24.4775 12.7764C24.4437 12.6847 24.4437 12.6847 24.3919 12.5942C24.3739 12.5599 24.356 12.5256 24.3382 12.4912C24.3292 12.474 24.3203 12.4568 24.311 12.439C24.085 11.9884 23.9783 11.4701 24.0615 10.9528C24.1813 10.4728 24.446 10.078 24.8215 9.82974C25.3309 9.51812 25.9596 9.55578 26.4356 9.93712Z" fill="white" stroke="black" stroke-width="2" mask="url(#path-1-inside-1_104_53)"/>
<path d="M0 0.00363769C1.18975 0.00316821 2.3795 0.00272029 3.56925 0.00246196C3.58686 0.00245812 3.60446 0.00245429 3.62261 0.00245034C4.00532 0.00236724 4.38803 0.00229032 4.77073 0.00221977C4.95842 0.00218513 5.1461 0.00214913 5.33378 0.00211241C5.36179 0.00210697 5.36179 0.00210697 5.39037 0.00210141C5.99569 0.00198309 6.60101 0.00177454 7.20633 0.00151916C7.8284 0.0012572 8.45046 0.00108631 9.07252 0.00102997C9.16039 0.00102197 9.24826 0.00101293 9.33613 0.00100325C9.36207 0.00100044 9.36207 0.00100044 9.38854 0.000997577C9.66688 0.00096477 9.94522 0.000835998 10.2236 0.000671304C10.5034 0.000507765 10.7833 0.000447658 11.0631 0.000486117C11.2147 0.000503927 11.3664 0.000476345 11.518 0.000327732C11.6568 0.000192665 11.7956 0.000185756 11.9344 0.000280711C11.9846 0.000292448 12.0348 0.000257181 12.0851 0.00017008C12.1534 5.84907e-05 12.2217 0.000118819 12.29 0.000221042C12.3094 0.000148098 12.3289 7.51543e-05 12.3489 0C12.6885 0.00114694 12.9276 0.0525688 13.1821 0.328054C13.4332 0.63004 13.4818 0.959128 13.4798 1.36682C13.4758 1.44751 13.4758 1.44751 13.4518 1.50305C13.4414 1.57589 13.4321 1.64862 13.4233 1.72171C13.3883 2.00126 13.3482 2.27968 13.3077 2.55819C13.251 2.94645 13.251 2.94645 13.1996 3.33566C13.1643 3.61791 13.1226 3.89893 13.0817 4.18016C13.0444 4.4368 13.008 4.69341 12.9758 4.95098C12.9395 5.23689 12.8968 5.52168 12.855 5.80658C12.8224 6.03002 12.7918 6.25335 12.7656 6.47794C12.7552 6.55661 12.7552 6.55661 12.7312 6.66768C12.3744 6.66768 12.0177 6.66768 11.6502 6.66768C11.6033 6.45064 11.5591 6.23579 11.5218 6.01668C11.5166 5.98701 11.5115 5.95733 11.5063 5.92676C11.4953 5.86315 11.4844 5.79954 11.4735 5.73592C11.4563 5.63512 11.4389 5.53435 11.4215 5.43359C11.3686 5.12695 11.316 4.82024 11.2642 4.51334C11.2433 4.3896 11.2223 4.2659 11.2012 4.1422C11.1915 4.08454 11.1818 4.02686 11.1722 3.96916C10.9822 2.78322 10.9822 2.78322 10.3771 1.83625C10.1723 1.67706 9.96903 1.57185 9.72853 1.50305C9.69815 1.49371 9.66778 1.48436 9.63648 1.47474C8.41646 1.11801 6.91281 1.26578 5.76505 1.25315C5.76505 3.78215 5.76505 6.31115 5.76505 8.9168C7.67545 8.9168 9.58584 8.9168 11.5541 8.9168C11.5541 9.39327 11.5541 9.86975 11.5541 10.3607C9.64374 10.3607 7.73334 10.3607 5.76505 10.3607C5.76505 13.861 5.76505 17.3612 5.76505 20.9676C6.76385 20.9676 7.76265 20.9676 8.79171 20.9676C8.79171 21.3891 8.79171 21.8106 8.79171 22.2449C5.89044 22.2449 2.98918 22.2449 0 22.2449C0 21.8234 0 21.4019 0 20.9676C0.539033 20.9676 1.07807 20.9676 1.63343 20.9676C1.63343 14.4618 1.63343 7.95606 1.63343 1.25315C1.0944 1.25315 0.555367 1.25315 0 1.25315C0 0.840808 0 0.42847 0 0.00363769Z" fill="black"/>
<path d="M54.7649 12.1617L54.7673 12.1621L54.8213 12.1717C55.6348 12.3208 56.4329 12.8415 56.9795 13.7012L56.9812 13.7039C57.0177 13.7609 57.0533 13.8146 57.0833 13.8595C57.4227 14.3789 57.6451 15.066 57.7485 15.8583L57.7487 15.8593L57.7606 15.9502C57.7848 16.1548 57.7935 16.3716 57.793 16.6262V16.6292L57.793 16.6986C57.7923 17.0527 57.7659 17.3837 57.7091 17.7172L57.7091 17.7172L57.7079 17.7244L57.6983 17.7825C57.6865 17.8508 57.6688 17.9281 57.6427 18.0257L57.6418 18.0292L57.6207 18.1086C57.6205 18.1093 57.6203 18.1101 57.6201 18.1108C57.5211 18.4801 57.4507 18.7107 57.3578 18.9028L57.3573 18.9038C57.3252 18.9704 57.2953 19.035 57.2708 19.0883C56.8261 20.0403 56.0808 20.7201 55.3304 20.9868C55.2778 21.0047 55.2237 21.0226 55.1665 21.0413L55.1665 21.0413L55.1534 21.0457L55.1052 21.0619C55.1047 21.0621 55.1042 21.0623 55.1037 21.0624C54.969 21.1073 54.8056 21.1373 54.525 21.1741L54.5242 21.1742L54.4601 21.1827C53.4309 21.2854 52.4809 21.0158 51.7439 20.3265C51.0395 19.6413 50.551 18.7 50.3917 17.5892L50.389 17.5703L50.3858 17.5514L50.3671 17.4414C50.1805 16.2475 50.4245 14.9021 50.9804 13.9475C51.1183 13.7181 51.2645 13.5139 51.4267 13.3234L51.4267 13.3234L51.4293 13.3204C51.4755 13.2658 51.5187 13.213 51.5569 13.166C51.8073 12.8621 52.1489 12.6123 52.5806 12.3963L52.5822 12.3955L52.6239 12.3746C53.2126 12.0873 53.9743 12.0202 54.7649 12.1617Z" fill="white" stroke="black" stroke-width="3"/>
<path d="M33.1491 5.19603C33.1723 5.20824 33.1954 5.22044 33.2193 5.23302C33.4818 5.38192 33.7308 5.63007 33.8417 5.94756C33.9166 6.21716 33.9033 6.49338 33.9019 6.77323C33.9019 6.83154 33.9019 6.88986 33.9019 6.94817C33.9019 7.10575 33.9015 7.26331 33.901 7.42089C33.9006 7.58583 33.9005 7.75078 33.9004 7.91572C33.9002 8.22774 33.8996 8.53976 33.8989 8.85178C33.8981 9.20714 33.8977 9.5625 33.8973 9.91787C33.8966 10.6486 33.8953 11.3793 33.8937 12.11C33.9239 12.0798 33.9541 12.0496 33.9843 12.0194C34.0011 12.0026 34.0179 11.9858 34.0352 11.9685C34.0839 11.9177 34.1293 11.8648 34.1745 11.8097C34.7205 11.1724 35.469 10.8305 36.2238 10.6939C36.2572 10.6876 36.2572 10.6876 36.2913 10.6813C37.225 10.514 38.2518 10.5126 39.0564 11.158C39.1686 11.2543 39.2704 11.3588 39.3705 11.4713C39.3887 11.4907 39.4069 11.51 39.4257 11.5299C39.9765 12.1315 40.1672 12.9778 40.1938 13.8272C40.1971 13.9934 40.1966 14.1595 40.1961 14.3258C40.1961 14.3887 40.1962 14.4516 40.1964 14.5146C40.1966 14.6485 40.1965 14.7825 40.1964 14.9165C40.1961 15.1287 40.1964 15.3409 40.1968 15.5531C40.1972 15.8508 40.1976 16.1485 40.1977 16.4461C40.1977 16.4649 40.1977 16.4837 40.1977 16.503C40.1977 16.713 40.1977 16.9229 40.1977 17.1328C40.1977 17.2091 40.1977 17.2855 40.1977 17.3618C40.1977 17.3807 40.1977 17.3995 40.1977 17.4189C40.1977 17.7341 40.198 18.0492 40.1987 18.3643C40.1991 18.5749 40.199 18.7856 40.1987 18.9962C40.1985 19.1274 40.1988 19.2585 40.1991 19.3896C40.1992 19.4501 40.1992 19.5106 40.1989 19.571C40.1971 20.03 40.2159 20.4687 40.495 20.8295C40.6566 21.0077 40.8535 21.0952 41.076 21.1064C41.0992 21.1082 41.1225 21.1099 41.1464 21.1118C41.5694 21.1299 41.9817 20.8962 42.2972 20.5806C42.3856 20.4945 42.3856 20.4945 42.4444 20.4998C42.5066 20.5298 42.5305 20.5653 42.5709 20.6273C42.5847 20.6483 42.5985 20.6693 42.6127 20.6909C42.6268 20.7129 42.6409 20.7349 42.6554 20.7576C42.6699 20.7795 42.6843 20.8015 42.6992 20.824C42.8055 20.9875 42.8055 20.9875 42.8055 21.0509C42.7688 21.0897 42.7304 21.1263 42.6914 21.162C42.667 21.1845 42.6425 21.207 42.6173 21.2302C42.6045 21.2419 42.5918 21.2536 42.5787 21.2657C42.5442 21.298 42.5107 21.3316 42.4773 21.3653C41.7696 22.0785 40.8245 22.6357 39.875 22.6891C39.8525 22.6905 39.8299 22.6919 39.8068 22.6933C39.3374 22.7177 38.8572 22.6658 38.4337 22.4115C38.4105 22.3982 38.3874 22.3849 38.3635 22.3712C37.8184 22.0342 37.5394 21.4391 37.3582 20.7803C37.2258 20.2646 37.2256 19.7303 37.2265 19.1968C37.2264 19.1326 37.2263 19.0685 37.2262 19.0043C37.226 18.8672 37.226 18.7301 37.226 18.5931C37.2261 18.376 37.2258 18.1588 37.2254 17.9417C37.2248 17.6371 37.2243 17.3325 37.224 17.0278C37.224 17.0086 37.224 16.9893 37.224 16.9695C37.2237 16.6961 37.2236 16.4227 37.2235 16.1492C37.2235 16.1203 37.2235 16.1203 37.2235 16.0908C37.2235 16.0715 37.2235 16.0523 37.2235 16.0324C37.2234 15.7102 37.2229 15.388 37.2222 15.0658C37.2217 14.8504 37.2216 14.6349 37.2219 14.4195C37.2219 14.2851 37.2216 14.1508 37.2212 14.0165C37.221 13.9546 37.2211 13.8927 37.2213 13.8309C37.2229 13.3131 37.1963 12.8425 36.8843 12.438C36.5555 12.0762 36.1213 12.043 35.693 12.0487C35.178 12.0639 34.7285 12.4018 34.3756 12.8171C34.2681 12.9491 34.1842 13.0893 34.1099 13.2484C34.0986 13.2723 34.0873 13.2962 34.0757 13.3208C33.8838 13.7637 33.9069 14.2451 33.9073 14.7276C33.9074 14.8302 33.907 14.9328 33.9066 15.0354C33.9061 15.2128 33.9058 15.3901 33.9057 15.5674C33.9055 15.8237 33.905 16.0801 33.9043 16.3364C33.9033 16.7524 33.9026 17.1685 33.902 17.5845C33.9015 17.9884 33.9009 18.3922 33.9 18.7961C33.9 18.8211 33.8999 18.846 33.8999 18.8717C33.8996 18.9968 33.8993 19.1219 33.8991 19.247C33.8968 20.2833 33.8952 21.3196 33.8937 22.3559C32.9187 22.3559 31.9437 22.3559 30.9391 22.3559C30.9391 16.9681 30.9391 11.5802 30.9391 6.02904C30.3671 6.24946 29.8998 6.4541 29.4688 6.92831C29.4004 7.00235 29.3301 7.07115 29.2576 7.13971C29.1145 6.9611 28.9767 6.78019 28.8448 6.59034C28.8022 6.52808 28.8022 6.52808 28.7532 6.47331C28.7565 6.39256 28.7777 6.36162 28.8247 6.30139C29.8985 5.19009 31.766 4.40758 33.1491 5.19603Z" fill="black"/>
<path d="M67.4169 10.6039C67.4744 10.6036 67.5319 10.6028 67.5894 10.6019C67.9385 10.5991 68.2827 10.6416 68.6117 10.7841C68.6317 10.7925 68.6517 10.8009 68.6723 10.8096C69.3533 11.1044 69.8364 11.6702 70.1528 12.4152C70.3647 12.9664 70.3889 13.5439 70.3878 14.1369C70.3879 14.2008 70.388 14.2647 70.3881 14.3286C70.3883 14.4656 70.3884 14.6025 70.3883 14.7394C70.3882 14.9563 70.3886 15.1732 70.389 15.39C70.3896 15.6943 70.39 15.9987 70.3903 16.303C70.3903 16.3222 70.3904 16.3415 70.3904 16.3613C70.3906 16.6346 70.3908 16.9078 70.3908 17.1811C70.3909 17.21 70.3909 17.2099 70.3909 17.2394C70.3909 17.2586 70.3909 17.2778 70.3909 17.2976C70.391 17.6192 70.3914 17.9408 70.3922 18.2623C70.3927 18.4776 70.3927 18.6928 70.3925 18.908C70.3924 19.0423 70.3927 19.1766 70.3932 19.3109C70.3933 19.3728 70.3933 19.4347 70.3931 19.4965C70.3916 19.971 70.3998 20.4562 70.6895 20.8293C70.9142 21.078 71.1917 21.1188 71.4916 21.1121C71.8566 21.0895 72.1879 20.8485 72.4771 20.6061C72.5372 20.5564 72.6003 20.5117 72.6637 20.4678C72.7747 20.6419 72.8857 20.816 73 20.9954C72.9515 21.1076 72.9207 21.1435 72.8379 21.2192C72.8141 21.2411 72.7903 21.2629 72.7658 21.2854C72.7467 21.3027 72.7467 21.3027 72.7272 21.3204C72.6873 21.3568 72.6477 21.3937 72.6082 21.4307C71.6994 22.2776 70.6281 22.8005 69.4474 22.6748C69.0001 22.6176 68.5853 22.4504 68.2438 22.106C68.2206 22.0846 68.1973 22.0631 68.1733 22.041C67.7428 21.6256 67.5533 20.9178 67.4752 20.3012C67.4712 20.2727 67.4673 20.2442 67.4633 20.2148C67.4212 19.8765 67.4204 19.5418 67.421 19.2005C67.4209 19.1353 67.4208 19.0702 67.4207 19.0051C67.4205 18.8657 67.4205 18.7262 67.4205 18.5868C67.4206 18.3849 67.4203 18.1829 67.4199 17.981C67.4193 17.6527 67.4188 17.3244 67.4185 16.9961C67.4185 16.9765 67.4185 16.9569 67.4185 16.9367C67.4182 16.6586 67.4181 16.3804 67.418 16.1023C67.418 16.0729 67.418 16.0729 67.418 16.0429C67.418 16.0233 67.418 16.0037 67.418 15.9835C67.4179 15.6562 67.4174 15.3289 67.4166 15.0016C67.4162 14.7825 67.4161 14.5633 67.4164 14.3442C67.4164 14.2077 67.4161 14.0712 67.4156 13.9346C67.4155 13.8716 67.4156 13.8086 67.4158 13.7456C67.4174 13.2315 67.3713 12.8183 67.0668 12.4154C66.6632 12.0569 66.2149 12.0114 65.7216 12.0544C65.2504 12.1345 64.7777 12.5103 64.4733 12.9226C64.1964 13.3534 64.1047 13.7959 64.1055 14.3288C64.1053 14.3806 64.1053 14.3806 64.1051 14.4334C64.1048 14.5283 64.1046 14.6231 64.1046 14.718C64.1045 14.8206 64.1042 14.9233 64.1038 15.0259C64.1033 15.2035 64.1029 15.381 64.1027 15.5586C64.1023 15.8152 64.1017 16.0719 64.101 16.3286C64.1 16.7451 64.0991 17.1617 64.0983 17.5782C64.0976 17.9826 64.0968 18.3871 64.0958 18.7915C64.0958 18.8165 64.0957 18.8415 64.0956 18.8672C64.0953 18.9924 64.095 19.1176 64.0947 19.2429C64.0923 20.2805 64.0902 21.3182 64.0882 22.3559C63.1132 22.3559 62.1382 22.3559 61.1336 22.3559C61.1336 18.9015 61.1336 15.447 61.1336 11.8878C60.573 11.9325 60.0666 11.9905 59.5482 12.221C59.5085 12.1037 59.469 11.9862 59.4296 11.8688C59.4184 11.8355 59.4071 11.8022 59.3955 11.7679C59.3847 11.7358 59.374 11.7037 59.3629 11.6706C59.348 11.6263 59.348 11.6263 59.3328 11.5811C59.3105 11.5074 59.2952 11.4372 59.284 11.3603C59.7615 11.1176 60.2793 10.9692 60.8028 10.9659C60.8236 10.9657 60.8444 10.9655 60.8658 10.9653C60.9325 10.9648 60.9993 10.9646 61.066 10.9646C61.1002 10.9646 61.1002 10.9646 61.135 10.9645C61.4606 10.965 61.7752 10.9753 62.0944 11.0548C62.1144 11.0593 62.1343 11.0638 62.1549 11.0684C62.8331 11.2207 63.4611 11.5853 64.0161 12.0544C64.1123 12.0086 64.1816 11.9307 64.2578 11.8514C65.0097 11.0916 65.8299 10.7847 66.8026 10.6383C66.8217 10.6353 66.8407 10.6324 66.8604 10.6293C67.0452 10.6039 67.231 10.6044 67.4169 10.6039Z" fill="black"/>
<path d="M45.4238 10.7216C45.4493 10.7303 45.4748 10.739 45.5011 10.7479C45.5653 10.7727 45.6263 10.8007 45.6881 10.8327C45.7208 10.8497 45.7208 10.8497 45.7542 10.867C46.0455 11.0337 46.2641 11.31 46.3712 11.6651C46.4501 11.9426 46.4843 12.1933 46.4842 12.4854C46.4843 12.5177 46.4844 12.5501 46.4845 12.5835C46.4847 12.6732 46.4848 12.7629 46.4849 12.8526C46.485 12.9494 46.4852 13.0462 46.4854 13.143C46.4858 13.3107 46.486 13.4785 46.4863 13.6462C46.4866 13.889 46.4871 14.1317 46.4877 14.3745C46.4886 14.7688 46.4894 15.163 46.4902 15.5573C46.4902 15.5808 46.4903 15.6044 46.4903 15.6287C46.491 15.9634 46.4915 16.2981 46.4921 16.6328C46.4921 16.6564 46.4922 16.68 46.4922 16.7042C46.4922 16.7278 46.4923 16.7513 46.4923 16.7756C46.493 17.1682 46.4938 17.5609 46.4948 17.9536C46.4954 18.1957 46.4958 18.4378 46.496 18.6799C46.4962 18.8459 46.4966 19.0118 46.4971 19.1778C46.4973 19.2734 46.4975 19.3691 46.4975 19.4648C46.4975 19.5687 46.4979 19.6726 46.4982 19.7764C46.4982 19.8065 46.4981 19.8365 46.4981 19.8675C46.5001 20.2197 46.5687 20.5995 46.793 20.8565C47.0621 21.0845 47.3541 21.1367 47.6818 21.1064C48.0571 21.0195 48.3659 20.7828 48.6667 20.5233C48.6905 20.505 48.7142 20.4867 48.7387 20.4678C48.7958 20.5483 48.8521 20.6295 48.9084 20.7108C48.9246 20.7337 48.9409 20.7566 48.9576 20.7802C48.9728 20.8024 48.9881 20.8246 49.0038 20.8474C49.018 20.8678 49.0322 20.8881 49.0469 20.9091C49.075 20.9676 49.075 20.9676 49.0702 21.0271C48.8452 21.6326 47.8168 22.148 47.3215 22.3837C46.5132 22.7377 45.5838 22.8594 44.7753 22.4392C44.7481 22.4253 44.7209 22.4113 44.693 22.3969C44.1866 22.1095 43.8733 21.5579 43.6898 20.9572C43.5336 20.3962 43.5119 19.8293 43.515 19.2443C43.5154 19.1429 43.5153 19.0415 43.5152 18.9401C43.5152 18.7652 43.5155 18.5904 43.516 18.4155C43.5168 18.1627 43.517 17.9099 43.5172 17.6572C43.5174 17.2468 43.518 16.8365 43.5189 16.4261C43.5198 16.028 43.5205 15.6299 43.5209 15.2318C43.5209 15.1948 43.5209 15.1948 43.521 15.1571C43.5211 15.0336 43.5212 14.91 43.5213 14.7865C43.5223 13.7647 43.524 12.743 43.5262 11.7212C43.4344 11.7557 43.3427 11.7905 43.251 11.8254C43.2253 11.835 43.1996 11.8447 43.1731 11.8547C42.7477 12.0169 42.3809 12.2629 42.0558 12.6205C41.9875 12.6946 41.9172 12.7634 41.8447 12.8319C41.7111 12.6637 41.5827 12.4921 41.459 12.314C41.4154 12.2495 41.4154 12.2495 41.3686 12.2053C41.3402 12.1655 41.3402 12.1655 41.3399 12.1138C41.3751 12.0282 41.43 11.9723 41.4904 11.9104C41.5097 11.8903 41.5097 11.8903 41.5294 11.8699C41.6657 11.7313 41.8119 11.6119 41.9648 11.4991C41.9788 11.4887 41.9927 11.4784 42.0071 11.4677C42.2395 11.2965 42.4805 11.1533 42.7335 11.0271C42.7487 11.0195 42.764 11.0118 42.7797 11.004C43.5727 10.6161 44.5883 10.4371 45.4238 10.7216Z" fill="black"/>
<path d="M0 25.9934C5.58057 25.9934 11.1611 25.9934 16.9108 25.9934C16.9108 26.699 16.9108 27.4045 16.9108 28.1315C11.3303 28.1315 5.74968 28.1315 0 28.1315C0 27.4259 0 26.7203 0 25.9934Z" fill="#DAB785"/>
<path d="M45.9966 5.66562C46.32 6.00799 46.5586 6.42849 46.5836 6.94741C46.5989 7.4939 46.4539 7.95216 46.1445 8.36145C45.865 8.70259 45.4924 8.89678 45.0874 8.92113C44.6208 8.93559 44.2274 8.77649 43.8843 8.41373C43.6097 8.10787 43.4258 7.6734 43.4001 7.23234C43.3919 6.68444 43.5227 6.20772 43.8519 5.80343C44.43 5.16571 45.3667 5.03517 45.9966 5.66562Z" fill="black"/>
<path d="M49.7557 26.4237C49.832 26.4876 49.897 26.5548 49.9638 26.632C49.9717 26.5404 49.9797 26.4488 49.9878 26.3544C50.1067 26.3544 50.2256 26.3544 50.3481 26.3544C50.3498 26.6848 50.3511 27.0153 50.3519 27.3457C50.3523 27.4992 50.3528 27.6527 50.3536 27.8062C50.3544 27.9545 50.3548 28.1029 50.355 28.2512C50.3551 28.3076 50.3554 28.3639 50.3558 28.4203C50.3589 28.8921 50.3446 29.329 50.0545 29.6967C49.7411 30.0287 49.346 30.003 48.9489 29.997C48.9005 29.9966 48.852 29.9962 48.8036 29.9959C48.6859 29.995 48.5682 29.9935 48.4505 29.9918C48.4505 29.8635 48.4505 29.7353 48.4505 29.6031C48.4805 29.6028 48.5105 29.6026 48.5415 29.6023C48.6539 29.6012 48.7662 29.5994 48.8786 29.5973C48.927 29.5965 48.9755 29.596 49.024 29.5956C49.094 29.595 49.164 29.5937 49.234 29.5922C49.2553 29.5922 49.2767 29.5922 49.2987 29.5921C49.4863 29.5872 49.6693 29.5381 49.8047 29.3792C49.9522 29.1515 49.9789 28.9085 49.9638 28.6312C49.9522 28.644 49.9405 28.6567 49.9285 28.6699C49.6891 28.9232 49.4577 29.0058 49.1341 28.9991C48.8581 28.9764 48.6134 28.8194 48.4237 28.5889C48.3321 28.4499 48.2697 28.2915 48.2103 28.1314C48.201 28.107 48.1917 28.0826 48.1821 28.0574C48.1514 27.9143 48.1534 27.7733 48.1532 27.6264C48.1526 27.5966 48.152 27.5668 48.1514 27.5361C48.1503 27.1786 48.2643 26.8707 48.4699 26.6033C48.8077 26.2339 49.3556 26.1275 49.7557 26.4237Z" fill="#D0AC5D"/>
<path d="M21.715 25.1882C23.2241 25.1882 23.2241 25.1882 23.6893 25.6758C24.0486 26.1143 24.1105 26.6745 24.1005 27.252C24.0852 27.692 23.9457 28.1602 23.6607 28.4647C23.1137 29.019 22.4114 28.9089 21.715 28.9089C21.715 27.6811 21.715 26.4532 21.715 25.1882ZM22.0994 25.6324C22.0994 26.5762 22.0994 27.52 22.0994 28.4924C22.8279 28.5091 22.8279 28.5091 23.4122 28.117C23.6746 27.7998 23.6991 27.3358 23.6923 26.9213C23.6807 26.6063 23.6286 26.2921 23.4445 26.0489C23.4322 26.0317 23.4199 26.0145 23.4072 25.9968C23.2459 25.7903 23.0499 25.6989 22.82 25.6324C22.5822 25.6324 22.3444 25.6324 22.0994 25.6324Z" fill="#D0AC5D"/>
<path d="M63.2535 26.2572C63.2832 26.2575 63.2832 26.2575 63.3136 26.2577C63.6024 26.2676 63.8365 26.3958 64.0401 26.632C64.2736 26.9445 64.3491 27.3085 64.3284 27.7149C64.3044 27.7427 64.3044 27.7427 64.234 27.7461C64.2025 27.746 64.171 27.7459 64.1385 27.7459C64.1211 27.7459 64.1038 27.7459 64.0859 27.7459C64.0283 27.7459 63.9708 27.7456 63.9132 27.7454C63.8734 27.7454 63.8336 27.7453 63.7937 27.7453C63.6887 27.7452 63.5837 27.7449 63.4787 27.7446C63.3717 27.7443 63.2646 27.7442 63.1575 27.7441C62.9473 27.7438 62.7371 27.7433 62.5268 27.7427C62.5446 27.8088 62.5626 27.8747 62.5809 27.9406C62.5858 27.959 62.5907 27.9775 62.5958 27.9965C62.6584 28.2201 62.7676 28.4101 62.9501 28.5234C63.057 28.5834 63.1494 28.593 63.267 28.5896C63.2859 28.5893 63.3047 28.5889 63.3242 28.5886C63.5663 28.5791 63.7494 28.4984 63.92 28.2981C63.9322 28.2843 63.9444 28.2706 63.9569 28.2565C63.9851 28.2245 64.0127 28.1919 64.0401 28.1592C64.1273 28.2234 64.2145 28.2875 64.3044 28.3536C64.1856 28.6402 63.969 28.8167 63.7196 28.9358C63.4482 29.0404 63.0982 29.0428 62.832 28.9194C62.542 28.7485 62.3464 28.4986 62.2335 28.1449C62.2272 28.1221 62.221 28.0994 62.2145 28.0759C62.2017 28.0308 62.2017 28.0308 62.1886 27.9847C62.1647 27.873 62.1582 27.7685 62.159 27.6542C62.1591 27.6336 62.1592 27.6129 62.1594 27.5917C62.1665 27.1985 62.282 26.8693 62.5158 26.5838C62.7235 26.3628 62.9731 26.2545 63.2535 26.2572Z" fill="#CFAB5D"/>
<path d="M30.6989 26.521C30.9085 26.7383 31.0456 27.0318 31.0833 27.354C31.0833 27.4823 31.0833 27.6106 31.0833 27.7427C30.4967 27.7427 29.9101 27.7427 29.3057 27.7427C29.3731 28.0806 29.427 28.2686 29.6419 28.4871C29.8369 28.6211 30.1231 28.6112 30.3397 28.5576C30.5214 28.4816 30.6594 28.339 30.771 28.1592C30.8832 28.2025 30.9652 28.2726 31.0592 28.3536C30.9798 28.622 30.7719 28.7766 30.5607 28.8985C30.2943 29.029 29.9236 29.0524 29.649 28.9376C29.3833 28.7994 29.17 28.6018 29.0431 28.2938C28.9673 28.0607 28.9327 27.8574 28.9349 27.6074C28.9351 27.5779 28.9353 27.5485 28.9355 27.5182C28.9431 27.126 29.0491 26.8628 29.2795 26.5747C29.6642 26.1519 30.2866 26.1647 30.6989 26.521Z" fill="#CFAB5D"/>
<path d="M37.3364 26.4178C37.4601 26.5154 37.5657 26.6491 37.641 26.7986C37.641 26.8353 37.641 26.8719 37.641 26.9097C37.6032 26.9338 37.5651 26.9575 37.5269 26.9809C37.5057 26.9941 37.4846 27.0073 37.4627 27.0209C37.4008 27.0485 37.4008 27.0485 37.3478 27.0438C37.2772 27.0061 37.2501 26.9282 37.2086 26.8542C37.0766 26.7058 36.9335 26.6552 36.7537 26.6494C36.6218 26.6531 36.5132 26.6856 36.3919 26.7431C36.3681 26.7523 36.3444 26.7614 36.3199 26.7709C36.2623 26.8773 36.2647 26.9796 36.2803 27.1C36.3006 27.1779 36.3346 27.2249 36.3926 27.271C36.5468 27.3603 36.7134 27.3845 36.8828 27.4078C37.1278 27.4432 37.3664 27.5052 37.5449 27.7149C37.6675 27.9017 37.7097 28.0641 37.6891 28.298C37.6306 28.549 37.5259 28.7192 37.3314 28.8507C37.0493 29.0203 36.7089 29.0409 36.4009 28.9577C36.1547 28.8669 35.984 28.7124 35.8395 28.467C35.8154 28.4091 35.8154 28.4091 35.8394 28.3258C35.8918 28.2863 35.8918 28.2863 35.9565 28.2495C35.9884 28.2308 35.9884 28.2308 36.0209 28.2117C36.0796 28.187 36.0796 28.187 36.1517 28.2147C36.171 28.2517 36.171 28.2517 36.1907 28.2894C36.2628 28.4225 36.3877 28.5226 36.5178 28.5658C36.7553 28.6012 36.9998 28.6166 37.2146 28.4808C37.2794 28.4132 37.3001 28.3395 37.3111 28.2408C37.3103 28.1294 37.3087 28.0345 37.2567 27.9371C37.0768 27.8422 36.8859 27.7979 36.6907 27.7705C36.4204 27.7312 36.1743 27.6652 35.9971 27.4078C35.9049 27.2076 35.8804 27.0304 35.9272 26.8072C35.9862 26.6155 36.0759 26.4738 36.2313 26.3743C36.5675 26.1953 37.0126 26.2105 37.3364 26.4178Z" fill="#CFAC5D"/>
<path d="M56.9489 26.4364C57.1135 26.597 57.2311 26.7719 57.2662 27.0208C57.2683 27.0838 57.269 27.1468 57.2689 27.2099C57.2689 27.2283 57.2689 27.2467 57.2689 27.2657C57.2689 27.3263 57.2687 27.3868 57.2685 27.4474C57.2685 27.4895 57.2685 27.5316 57.2684 27.5738C57.2683 27.6844 57.2681 27.795 57.2678 27.9056C57.2676 28.0186 57.2675 28.1315 57.2674 28.2445C57.2671 28.466 57.2667 28.6875 57.2662 28.9089C57.1473 28.9089 57.0284 28.9089 56.9059 28.9089C56.9055 28.8554 56.9052 28.8019 56.9048 28.7468C56.9036 28.5693 56.902 28.3919 56.9002 28.2145C56.8991 28.107 56.8982 27.9995 56.8976 27.8919C56.8969 27.7881 56.896 27.6842 56.8948 27.5803C56.8944 27.5408 56.8941 27.5013 56.8939 27.4618C56.8971 27.1032 56.8971 27.1032 56.7452 26.8038C56.5705 26.6705 56.4087 26.6245 56.2015 26.6728C56.0498 26.7228 55.932 26.8086 55.8429 26.9611C55.7279 27.2065 55.7213 27.4668 55.7189 27.7402C55.7184 27.7738 55.718 27.8073 55.7175 27.8419C55.7161 27.9482 55.7149 28.0546 55.7138 28.161C55.7129 28.2334 55.712 28.3058 55.711 28.3783C55.7087 28.5551 55.7067 28.732 55.7048 28.9089C55.5859 28.9089 55.467 28.9089 55.3445 28.9089C55.3445 28.0659 55.3445 27.2229 55.3445 26.3544C55.4634 26.3544 55.5823 26.3544 55.7048 26.3544C55.7128 26.446 55.7207 26.5376 55.7288 26.632C55.7521 26.6028 55.7754 26.5736 55.7994 26.5435C56.0974 26.199 56.6019 26.1555 56.9489 26.4364Z" fill="#D0AD5E"/>
<path d="M70.2901 26.2659C70.3075 26.2659 70.3249 26.2659 70.3428 26.2659C70.471 26.2672 70.471 26.2672 70.5258 26.2988C70.5258 26.4271 70.5258 26.5554 70.5258 26.6876C70.4664 26.6738 70.4664 26.6738 70.4057 26.6598C70.172 26.6371 70.0372 26.6796 69.8487 26.8333C69.6438 27.0649 69.5823 27.3453 69.5772 27.6696C69.5769 27.7166 69.5769 27.7166 69.5767 27.7646C69.5763 27.7975 69.5758 27.8304 69.5754 27.8643C69.5741 27.9684 69.5733 28.0725 69.5725 28.1766C69.5717 28.2475 69.5709 28.3185 69.57 28.3895C69.568 28.5626 69.5664 28.7358 69.565 28.9089C69.4461 28.9089 69.3272 28.9089 69.2047 28.9089C69.2047 28.0659 69.2047 27.2229 69.2047 26.3544C69.3236 26.3544 69.4425 26.3544 69.565 26.3544C69.5729 26.4735 69.5808 26.5926 69.589 26.7153C69.6123 26.6821 69.6356 26.6489 69.6596 26.6147C69.8335 26.3847 70.0248 26.2606 70.2901 26.2659Z" fill="#D1AD5E"/>
<path d="M42.7575 26.3544C42.8685 26.3544 42.9794 26.3544 43.0938 26.3544C43.0938 27.1974 43.0938 28.0404 43.0938 28.9089C42.9828 28.9089 42.8718 28.9089 42.7575 28.9089C42.7575 28.0659 42.7575 27.2229 42.7575 26.3544Z" fill="#D3AF5E"/>
<path d="M42.9977 25.2715C43.0856 25.3281 43.1339 25.3688 43.1899 25.4658C43.2073 25.5909 43.2043 25.6878 43.1478 25.7973C43.0672 25.8827 43.0249 25.9067 42.9151 25.9205C42.8145 25.9083 42.7793 25.882 42.7094 25.799C42.6543 25.714 42.6513 25.6255 42.6537 25.5204C42.6661 25.4324 42.7025 25.387 42.7575 25.327C42.836 25.2635 42.9033 25.2584 42.9977 25.2715Z" fill="#CFAB5D"/>
</svg>
